<svg xmlns="http://www.w3.org/2000/svg" xmlns:xlink="http://www.w3.org/1999/xlink"
     style="position: absolute; width: 0; height: 0;" width="0" height="0" version="1.1">
    <defs>

    <!--menu-->
        <symbol id="icon_menu" xmlns="http://www.w3.org/2000/svg" version="1.1" x="0px" y="0px" viewBox="0 0 100 100" enable-background="new 0 0 100 100" xml:space="preserve">
            <title>icon_menu</title>
            <g>
                <path fill="#9c9c9c" d="M86.3,8.9H13.7c-5,0-9.1,4.1-9.1,9.1s4.1,9.1,9.1,9.1h72.6c5,0,9.1-4.1,9.1-9.1S91.3,8.9,86.3,8.9z"></path>
                <path fill="#9c9c9c" d="M30.6,59.1h38.8c5,0,9.1-4.1,9.1-9.1s-4.1-9.1-9.1-9.1H30.6c-5,0-9.1,4.1-9.1,9.1S25.6,59.1,30.6,59.1z"></path>
                <path fill="#9c9c9c" d="M78.2,72.9H21.8c-5,0-9.1,4.1-9.1,9.1s4.1,9.1,9.1,9.1h56.4c5,0,9.1-4.1,9.1-9.1S83.2,72.9,78.2,72.9z"></path>
            </g>
        </symbol>

    <!--four-squares-->
        <symbol id="icon_four-squares" xmlns="http://www.w3.org/2000/svg"  version="1.1" x="0px" y="0px" viewBox="0 0 22 22" style="enable-background:new 0 0 22 22;" xml:space="preserve">
            <title>four-squares</title>
            <g>
                <path fill="#ffffff" d="M10,1c0-0.553-0.447-1-1-1H1C0.447,0,0,0.447,0,1v8c0,0.553,0.447,1,1,1h8c0.553,0,1-0.447,1-1V1z"></path>
                <path fill="#ffffff" d="M13,10h8c0.553,0,1-0.447,1-1V1c0-0.553-0.447-1-1-1h-8c-0.553,0-1,0.447-1,1v8C12,9.553,12.447,10,13,10z"></path>
                <path fill="#ffffff" d="M10,21v-8c0-0.553-0.447-1-1-1H1c-0.553,0-1,0.447-1,1v8c0,0.553,0.447,1,1,1h8C9.553,22,10,21.553,10,21z"></path>
                <path fill="#ffffff" d="M12,21c0,0.553,0.447,1,1,1h8c0.553,0,1-0.447,1-1v-8c0-0.553-0.447-1-1-1h-8c-0.553,0-1,0.447-1,1V21z"></path>
            </g>
        </symbol>


<!--MENU-->
    <!--stationary-bike-->
        <symbol id="icon_stationary-bike" xmlns="http://www.w3.org/2000/svg" version="1.1" x="0px" y="0px" viewBox="0 0 100 100" enable-background="new 0 0 100 100" xml:space="preserve">
            <title>stationary-bike</title>
            <g>
                <path fill="#9c9c9c" d="M76.303,10.806c-2.65,2.88-5.3,5.761-7.95,8.641c-3.74,0-7.479,0-11.22,0c-2.418,0-2.418,3.75,0,3.75   c1.405,0,2.81,0,4.215,0c-3.119,10.77-6.238,21.539-9.357,32.308c-5.391-2.848-11.71-4.65-15.469-5.673   c-3.134-0.852-7.146-2.094-10.841-2.37c-1.586-4.902-3.172-9.804-4.758-14.707c2.48,0,4.961,0,7.441,0c2.418,0,2.418-3.75,0-3.75   c-5.024,0-10.048,0-15.072,0c-2.418,0-2.418,3.75,0,3.75c1.23,0,2.461,0,3.692,0c1.603,4.955,3.206,9.91,4.809,14.865   c-7.144,1.348-10.505,9.855-11.314,16.268c-0.013,0.106-0.013,0.204-0.004,0.296c-0.248,7.033,3.809,11.524,10.563,13.205   c3.768,0.938,8.293,1.283,12.15,1.429c9.204,0.348,26.698,3.024,28.591-9.892c0.7-4.779-2.238-8.525-6.462-11.426   c3.312-11.435,6.624-22.869,9.936-34.304c1.226,0,2.45,0,3.676,0c0.438,0.09,0.904,0.004,1.329-0.334   c0.054-0.039,0.099-0.085,0.146-0.13c0.031-0.03,0.065-0.051,0.096-0.085c0.011-0.012,0.021-0.023,0.032-0.035   c0.001-0.001,0.002-0.002,0.002-0.003c2.808-3.051,5.614-6.102,8.422-9.153C80.589,11.682,77.943,9.023,76.303,10.806z    M38.197,52.212c0.095,0.053,0.325,0.492,0.327,1.262c0.001,0.771-0.229,1.211-0.289,1.258l-5.95,0.004   c-0.1-0.078-0.312-0.513-0.314-1.251c0-0.773,0.229-1.213,0.289-1.26L38.197,52.212z M27.413,65.495   c-0.167,0.223-0.458,0.345-0.819,0.345c-0.441,0-0.935-0.183-1.356-0.501c-0.791-0.599-1.13-1.539-0.742-2.054l6.81-8.992   c0.137,0.656,0.445,1.192,0.954,1.192l2.738-0.002L27.413,65.495z M23.898,62.832c-0.645,0.854-0.247,2.246,0.887,3.104   c0.556,0.421,1.198,0.653,1.809,0.653c0.603,0,1.107-0.229,1.418-0.643l3.622-4.781c0.478,0.817,0.79,1.791,0.852,2.932   c-0.434,8.052-12.059,8.052-12.492,0c-0.251-4.661,3.826-6.604,7.39-5.868L23.898,62.832z"/><path fill="none" d="M19.993,64.098c0.434,8.052,12.059,8.052,12.492,0c-0.062-1.141-0.374-2.114-0.852-2.932l-3.622,4.781   c-0.311,0.414-0.815,0.643-1.418,0.643c-0.61,0-1.252-0.232-1.809-0.653c-1.134-0.858-1.532-2.251-0.887-3.104l3.485-4.603   C23.819,57.493,19.742,59.437,19.993,64.098z"/><path fill="none" d="M34.998,55.483l-2.738,0.002c-0.509,0-0.817-0.536-0.954-1.192l-6.81,8.992   c-0.389,0.515-0.049,1.455,0.742,2.054c0.421,0.318,0.915,0.501,1.356,0.501c0.362,0,0.652-0.122,0.819-0.345L34.998,55.483z"/><path fill="none" d="M32.259,52.225c-0.06,0.047-0.289,0.486-0.289,1.26c0.002,0.738,0.214,1.173,0.314,1.251l5.95-0.004   c0.06-0.047,0.29-0.486,0.289-1.258c-0.001-0.77-0.231-1.209-0.327-1.262L32.259,52.225z"/>
            </g>
        </symbol>

    <!--wardrobe-->
        <symbol id="icon_wardrobe" xmlns="http://www.w3.org/2000/svg" viewBox="0 0 42 54" x="0px" y="0px">
            <title>wardrobe</title>
            <path fill="#9c9c9c" fill-rule="evenodd" d="M129,170 L129,162 L149,162 L149,170 L129,170 Z M129,172 L129,179 C129,179.552285 129.447715,180 130,180 L149,180 L149,172 L129,172 Z M129,160 L129,127 C129,126.447715 129.447715,126 130,126 L149,126 L149,160 L129,160 Z M151,180 L170,180 C170.552285,180 171,179.552285 171,179 L171,127 C171,126.447715 170.552285,126 170,126 L151,126 L151,180 Z M142,156.495316 C142,156.785965 142.219595,157 142.490479,157 L145.509521,157 C145.784943,157 146,156.774045 146,156.495316 L146,155.504684 C146,155.214035 145.780405,155 145.509521,155 L142.490479,155 C142.215057,155 142,155.225955 142,155.504684 L142,156.495316 Z M154,155.504684 C154,155.225955 154.215057,155 154.490479,155 L157.509521,155 C157.780405,155 158,155.214035 158,155.504684 L158,156.495316 C158,156.774045 157.784943,157 157.509521,157 L154.490479,157 C154.219595,157 154,156.785965 154,156.495316 L154,155.504684 Z M137,174.504684 C137,174.225955 137.215057,174 137.490479,174 L140.509521,174 C140.780405,174 141,174.214035 141,174.504684 L141,175.495316 C141,175.774045 140.784943,176 140.509521,176 L137.490479,176 C137.219595,176 137,175.785965 137,175.495316 L137,174.504684 Z M137,165.495316 C137,165.785965 137.219595,166 137.490479,166 L140.509521,166 C140.784943,166 141,165.774045 141,165.495316 L141,164.504684 C141,164.214035 140.780405,164 140.509521,164 L137.490479,164 C137.215057,164 137,164.225955 137,164.504684 L137,165.495316 Z" transform="translate(-129 -126)"/>
        </symbol>

    <!--writing-table-->
        <svg id="icon_writing-table" xmlns="http://www.w3.org/2000/svg"  viewBox="0 0 100 100" x="0px" y="0px">
            <title>writing-table</title>
            <g transform="translate(0,-952.36214)">
                <path fill="#9c9c9c" d="m 8.6461087,975.73071 c -2.019562,0 -3.64608,2.04045 -3.64608,4.57664 l 0,12.99144 41.7279253,0 0,-12.99144 c 0,-0.11567 -0.01984,-0.22432 -0.02645,-0.33778 l 40.873523,0 0,47.24343 c 0,2.3744 3.561633,2.3744 3.561633,0 l 0,-47.24343 1.713749,0 a 2.1196412,2.1196412 0 1 0 0,-4.23886 l -49.766839,0 -2.044919,0 -32.3925003,0 z m 12.7000183,11.81747 9.035729,0 a 1.0598206,1.0598206 0 1 1 0,2.11943 l -9.035729,0 a 1.0598206,1.0598206 0 1 1 0,-2.11943 z m -13.8027833,8.54727 c -1.408996,0 -2.543315,1.13432 -2.543315,2.54334 l 0,7.49091 c 0,1.4089 1.134319,2.5433 2.543315,2.5433 l 36.6412953,0 c 1.408996,0 2.543315,-1.1344 2.543315,-2.5433 l 0,-7.49091 c 0,-1.40902 -1.134319,-2.54334 -2.543315,-2.54334 l -36.6412953,0 z m 13.8027833,5.22905 9.035729,0 a 1.0598206,1.0598206 0 1 1 0,2.1194 l -9.035729,0 a 1.0598206,1.0598206 0 1 1 0,-2.1194 z m -13.8027833,9.8454 c -1.408996,0 -2.543315,1.1343 -2.543315,2.5433 l 0,8.2906 c 0,1.409 1.134319,2.5434 2.543315,2.5434 l 36.6412953,0 c 1.408996,0 2.543315,-1.1344 2.543315,-2.5434 l 0,-8.2906 c 0,-1.409 -1.134319,-2.5433 -2.543315,-2.5433 l -36.6412953,0 z m 13.8027833,5.4145 9.035729,0 a 1.0598206,1.0598206 0 1 1 0,2.1194 l -9.035729,0 a 1.0598206,1.0598206 0 1 1 0,-2.1194 z m -12.3224893,9.0937 c -0.0017,0.034 -0.0025,0.069 -0.0034,0.1026 -2.37e-4,1.7743 1.4855343,3.2126 3.3182293,3.2123 1.832052,-6e-4 3.316814,-1.4387 3.316577,-3.2123 -8.48e-4,-0.034 -0.0025,-0.069 -0.0051,-0.1026 l -6.6265233,0 z m 27.0541843,0 c -0.0025,0.034 -0.0042,0.069 -0.0051,0.1026 -2.37e-4,1.7736 1.484525,3.2117 3.316577,3.2123 1.832695,3e-4 3.318466,-1.438 3.318229,-3.2123 -5.43e-4,-0.034 -0.0017,-0.069 -0.0034,-0.1026 l -6.626523,0 z" ></path>
            </g>
        </svg>

    <!--oven-->
        <symbol id="icon_oven" xmlns="http://www.w3.org/2000/svg" version="1.1" x="0px" y="0px" viewBox="0 0 90 90" style="enable-background:new 0 0 90 90;" xml:space="preserve">
            <title>oven</title>
            <style type="text/css">
                .st0{fill:none;stroke:#9c9c9c;stroke-width:2;stroke-miterlimit:10;}
                .st1{stroke:#9c9c9c;stroke-width:2;stroke-miterlimit:10;}
            </style>
            <path fill="#9c9c9c" d="M21.9,79.9L21.9,79.9c-0.8,0-1.5-0.7-1.5-1.5v-4.2h3v4.2C23.4,79.2,22.7,79.9,21.9,79.9z"/>
            <path fill="#9c9c9c" d="M70,79.9L70,79.9c-0.8,0-1.5-0.7-1.5-1.5v-4.2h3v4.2C71.5,79.2,70.8,79.9,70,79.9z"/>
            <path fill="#9c9c9c" d="M74.6,74.2H15.4c-3.5,0-6.4-2.8-6.4-6.4V14.5c0-3.5,2.8-6.4,6.4-6.4h59.2c3.5,0,6.4,2.8,6.4,6.4v53.3  C81,71.3,78.1,74.2,74.6,74.2z M68.5,58.5V41c0-3.2-2.6-5.7-5.7-5.7H27.6c-3.2,0-5.7,2.6-5.7,5.7v17.4c0,3.2,2.6,5.7,5.7,5.7h35.2  C65.9,64.2,68.5,61.6,68.5,58.5z M24.6,17.7L24.6,17.7c0-0.8-0.7-1.5-1.5-1.5H18c-0.8,0-1.5,0.7-1.5,1.5v0c0,0.8,0.7,1.5,1.5,1.5  h5.1C23.9,19.3,24.6,18.6,24.6,17.7z M37.9,17.7L37.9,17.7c0-0.8-0.7-1.5-1.5-1.5h-5.1c-0.8,0-1.5,0.7-1.5,1.5v0  c0,0.8,0.7,1.5,1.5,1.5h5.1C37.2,19.3,37.9,18.6,37.9,17.7z M51.2,17.7L51.2,17.7c0-0.8-0.7-1.5-1.5-1.5h-5.1  c-0.8,0-1.5,0.7-1.5,1.5v0c0,0.8,0.7,1.5,1.5,1.5h5.1C50.5,19.3,51.2,18.6,51.2,17.7z M81,25.1H9v2H81V25.1z"/>
        </symbol>

    <!--bed-->
        <svg id="icon_bed" xmlns="http://www.w3.org/2000/svg" x="0px" y="0px" viewBox="0 0 24 24" style="enable-background:new 0 0 24 24;" xml:space="preserve">
            <title>bed</title>
            <g>
                <g>
                    <path fill="#9c9c9c" d="M21.5,10.5h-19C1.122,10.5,0,11.622,0,13v7c0,0.276,0.224,0.5,0.5,0.5S1,20.276,1,20v-1.5h22V20    c0,0.276,0.224,0.5,0.5,0.5S24,20.276,24,20v-7C24,11.622,22.878,10.5,21.5,10.5z M23,17.5H1v-1h22V17.5z M2.5,9.5H5    c-0.154,0-0.299-0.071-0.394-0.192C4.511,9.187,4.478,9.029,4.515,8.879l0.311-1.243C4.993,6.967,5.592,6.5,6.281,6.5H9.5    C10.327,6.5,11,7.173,11,8v1c0,0.276-0.224,0.5-0.5,0.5h3C13.224,9.5,13,9.276,13,9V8c0-0.827,0.673-1.5,1.5-1.5h3.219    c0.689,0,1.288,0.467,1.455,1.136l0.311,1.243c0.038,0.149,0.004,0.308-0.091,0.429C19.299,9.429,19.154,9.5,19,9.5h2.5    C21.776,9.5,22,9.276,22,9V6c0-1.378-1.122-2.5-2.5-2.5h-15C3.122,3.5,2,4.622,2,6v3C2,9.276,2.224,9.5,2.5,9.5z"/>
                </g>
            </g>
        </svg>

    <!--sofa-->

        <svg id="icon_sofa" xmlns="http://www.w3.org/2000/svg" x="0px" y="0px" viewBox="0 0 48 48" enable-background="new 0 0 48 48" xml:space="preserve">
             <title>sofa</title>
            <g>
                <path fill="#9c9c9c" d="M44.243,17.304c-2.071,0-3.757,1.686-3.757,3.757v4.662H7.514v-4.662c0-2.071-1.686-3.757-3.757-3.757S0,18.99,0,21.061   v8.419c0,2.07,1.686,3.756,3.757,3.756h1.478v2.488c0,0.836,0.678,1.516,1.516,1.516s1.516-0.68,1.516-1.516v-2.488h31.469v2.488   c0,0.836,0.678,1.516,1.516,1.516s1.516-0.68,1.516-1.516v-2.488h1.478c2.071,0,3.757-1.686,3.757-3.756v-8.419   C48,18.99,46.314,17.304,44.243,17.304z"></path>
                <path fill="#9c9c9c" d="M9.535,21.061v2.641h13.455V10.76H12.41c-3.033,0-5.537,2.291-5.881,5.233C8.318,16.976,9.535,18.879,9.535,21.061z"></path>
                <path fill="#9c9c9c" d="M38.465,21.061c0-2.182,1.217-4.085,3.007-5.067c-0.345-2.942-2.849-5.233-5.882-5.233H25.011v12.942h13.454V21.061z"></path>
            </g>
        </svg>

    <!--armchair-->
        <symbol id="icon_armchair" viewBox="0 0 594 1024">
             <title>armchair</title>
            <path fill="#9c9c9c" d="M23.75,35.659c2.081-0.38,4.79-0.662,8.25-0.662c3.46,0,6.169,0.282,8.25,0.662c0.786-3.62,3.364-6.574,6.751-7.901V22.42   c0-8.284-6.716-15-15.001-15c-8.284,0-15,6.716-15,15v5.339C20.387,29.086,22.964,32.04,23.75,35.659z"/>
            <!--<path class="path1"  d="M8,27 L24,27 L24,27.4953156 C24,27.785965 24.2238576,28 24.5,28 C24.7680664,28 25,27.7740451 25,27.4953156 L25,27 C26.93,27 28.032,25.5 28.032,23.5 L28.032,21.551 C28.032,21.3551636 28.032,21.0906982 28.27,20.973 L28.7199036,20.756 C29.5379036,20.415 29.844,19.782 29.972,18.924 L30,18.551 C30,17.173 29,16 27.5,16 C25,16 23.5,17.845 23.5,20.051 L23.5,20.706 L22.868,20.583 C21.977,20.34 18.414,20 16.005,20 C13.595,20 10.022,20.34 9.131,20.583 L8.5,20.756 L8.5,20.101 C8.5,17.986 7,16 4.5,16 C3,16 2,17.173 2,18.551 C2,18.692 2.014,18.831 2.037,18.966 C2.156,19.684 2.58,20.314 3.204,20.691 L3.79229736,20.973 C4,21.1032715 4,21.261 4,21.551 L4,23.551 C4,25.5 5.07,27 7,27 L7,27.4953156 C7,27.785965 7.22385763,28 7.5,28 C7.76806641,28 8,27.7740451 8,27.4953156 L8,27 Z M9.5,19.5 C10.771,19.22 14.259,19 16,19 C17.743,19 21.228,19.221 22.5,19.5 C22.727,17.637 23.5,16 25.5,15.5 L26.5,11.488 C27,9.5 26.236,7.441 25,6 C23.763,4.559 21.898,4 20,4 L12,4 C10.102,4 8.236,4.558 7,6 C5.762,7.441 5,9.5 5.5,11.488 L6.5,15.5 C8.5,16 9.283,17.633 9.5,19.5 Z"    />-->
       </symbol>
<!--MENU-->

    <!--search-->
        <symbol id="icon_search"  xmlns="http://www.w3.org/2000/svg" version="1.1" x="0px" y="0px" viewBox="0 0 100 100" style="enable-background:new 0 0 100 100;" xml:space="preserve">
            <title>search</title>
            <style type="text/css">
                .st0{fill-rule:evenodd;clip-rule:evenodd;}
            </style>
            <path fill="#9c9c9c" d="M88.6,87.4c-1.9,1.9-4.9,1.9-6.7,0L61.5,67c-5.4,4.5-12.4,7.2-20,7.2C24.1,74.2,10,60.1,10,42.7  s14.1-31.5,31.5-31.5S73,25.3,73,42.7c0,6.4-1.9,12.3-5.1,17.2l20.7,20.7C90.4,82.5,90.4,85.5,88.6,87.4z M41.5,20.9  c-12,0-21.8,9.8-21.8,21.8c0,12,9.8,21.8,21.8,21.8c12,0,21.8-9.8,21.8-21.8C63.3,30.7,53.6,20.9,41.5,20.9z"></path>
        </symbol>
        <!--///////////////////*******************///////////////////-->


        <symbol id="icon_exit" viewBox="0 0 1024 1024">
            <title>exit</title>
            <path class="path1"
                  d="M800 640v-128h-320v-128h320v-128l192 192zM736 576v256h-320v192l-384-192v-832h704v320h-64v-256h-512l256 128v576h256v-192z"/>
        </symbol>

        <symbol id="icon_angle_down" viewBox="0 0 594 1024">
            <title>angle_down</title>
            <path class="path1"
                  d="M582.286 493.714q0 7.429-5.714 13.143l-266.286 266.286q-5.714 5.714-13.143 5.714t-13.143-5.714l-266.286-266.286q-5.714-5.714-5.714-13.143t5.714-13.143l28.571-28.571q5.714-5.714 13.143-5.714t13.143 5.714l224.571 224.571 224.571-224.571q5.714-5.714 13.143-5.714t13.143 5.714l28.571 28.571q5.714 5.714 5.714 13.143zM582.286 274.286q0 7.429-5.714 13.143l-266.286 266.286q-5.714 5.714-13.143 5.714t-13.143-5.714l-266.286-266.286q-5.714-5.714-5.714-13.143t5.714-13.143l28.571-28.571q5.714-5.714 13.143-5.714t13.143 5.714l224.571 224.571 224.571-224.571q5.714-5.714 13.143-5.714t13.143 5.714l28.571 28.571q5.714 5.714 5.714 13.143z"/>
        </symbol>

        <symbol id="icon_cart_plus" viewBox="0 0 951 1024">
            <title>cart_plus</title>
            <path class="path1"
                  d="M694.857 402.286q0-14.857-10.857-25.714t-25.714-10.857h-73.143v-73.143q0-14.857-10.857-25.714t-25.714-10.857-25.714 10.857-10.857 25.714v73.143h-73.143q-14.857 0-25.714 10.857t-10.857 25.714 10.857 25.714 25.714 10.857h73.143v73.143q0 14.857 10.857 25.714t25.714 10.857 25.714-10.857 10.857-25.714v-73.143h73.143q14.857 0 25.714-10.857t10.857-25.714zM365.714 877.714q0 30.286-21.429 51.714t-51.714 21.429-51.714-21.429-21.429-51.714 21.429-51.714 51.714-21.429 51.714 21.429 21.429 51.714zM877.714 877.714q0 30.286-21.429 51.714t-51.714 21.429-51.714-21.429-21.429-51.714 21.429-51.714 51.714-21.429 51.714 21.429 21.429 51.714zM950.857 256v292.571q0 13.714-9.143 24.286t-23.429 12.286l-596.571 69.714q0.571 4 2.571 12.286t3.429 15.143 1.429 12.571q0 9.143-13.714 36.571h525.714q14.857 0 25.714 10.857t10.857 25.714-10.857 25.714-25.714 10.857h-585.143q-14.857 0-25.714-10.857t-10.857-25.714q0-8 6.286-22.571t16.857-34 11.714-21.714l-101.143-470.286h-116.571q-14.857 0-25.714-10.857t-10.857-25.714 10.857-25.714 25.714-10.857h146.286q9.143 0 16.286 3.714t11.429 8.857 7.429 14 4.286 15.143 3.143 16.857 2.571 14.571h686.286q14.857 0 25.714 10.857t10.857 25.714z"/>
        </symbol>

        <symbol id="icon_user_check" viewBox="0 0 1024 1024">
            <title>user_check</title>
            <path class="path1" d="M960 608l-288 288-96-96-64 64 160 160 352-352z"/>
            <path class="path2"
                  d="M448 768h320v-115.128c-67.22-39.2-156.308-66.11-256-74.26v-52.78c70.498-39.728 128-138.772 128-237.832 0-159.058 0-288-192-288s-192 128.942-192 288c0 99.060 57.502 198.104 128 237.832v52.78c-217.102 17.748-384 124.42-384 253.388h448v-64z"/>
        </symbol>

        <symbol id="icon_warning" viewBox="0 0 1024 1024">
            <title>warning</title>
            <path class="path1"
                  d="M1010.432 838.752l-383.968-768c-21.664-43.36-65.952-70.752-114.464-70.752s-92.8 27.392-114.464 70.752l-383.968 768c-19.84 39.68-17.728 86.816 5.6 124.576 23.328 37.696 64.512 60.672 108.864 60.672h767.904c44.384 0 85.568-22.976 108.864-60.672 23.328-37.76 25.44-84.896 5.632-124.576zM575.936 864c0 17.696-14.304 32-32 32h-64c-17.696 0-32-14.304-32-32v-64c0-17.696 14.304-32 32-32h64c17.696 0 32 14.304 32 32v64zM575.936 608c0 17.696-14.304 32-32 32h-64c-17.696 0-32-14.304-32-32v-320c0-17.664 14.304-32 32-32h64c17.696 0 32 14.336 32 32v320z"/>
        </symbol>

        <symbol id="icon_odnoklasniki" viewBox="0 0 1024 1024">
            <title>odnoklasniki</title>
            <path class="path1"
                  d="M750.933 512c-34.133 0-102.4 68.267-238.933 68.267s-204.8-68.267-238.933-68.267c-37.683 0-68.267 30.583-68.267 68.267 0 34.133 19.388 50.551 34.133 59.187 40.448 23.654 170.667 77.346 170.667 77.346l-145.067 185.617c0 0-25.6 31.915-25.6 53.316 0 37.683 30.583 68.267 68.267 68.267 34.85 0 50.654-22.391 50.654-22.391s153.907-182.647 154.146-182.409c0.239-0.239 154.146 182.409 154.146 182.409s15.804 22.391 50.654 22.391c37.683 0 68.267-30.583 68.267-68.267 0-21.402-25.6-53.316-25.6-53.316l-145.067-185.617c0 0 130.219-53.692 170.667-77.346 14.746-8.636 34.133-25.054 34.133-59.187 0-37.683-30.583-68.267-68.267-68.267z"/>
            <path class="path2"
                  d="M512 0c-131.959 0-238.933 106.974-238.933 238.933s106.974 238.933 238.933 238.933c131.925 0 238.933-106.974 238.933-238.933s-107.008-238.933-238.933-238.933zM512 358.4c-65.98 0-119.467-53.453-119.467-119.467 0-65.98 53.487-119.467 119.467-119.467 65.946 0 119.467 53.487 119.467 119.467 0 66.014-53.521 119.467-119.467 119.467z"/>
        </symbol>

        <symbol id="icon_chevron" viewBox="0 0 1024 1024">
            <title>chevron</title>
            <path class="path1"
                  d="M961.714 461.714l-424 423.429q-10.857 10.857-25.714 10.857t-25.714-10.857l-424-423.429q-10.857-10.857-10.857-26t10.857-26l94.857-94.286q10.857-10.857 25.714-10.857t25.714 10.857l303.429 303.429 303.429-303.429q10.857-10.857 25.714-10.857t25.714 10.857l94.857 94.286q10.857 10.857 10.857 26t-10.857 26z"/>
        </symbol>

        <symbol id="icon_email" viewBox="0 0 1024 1024">
            <title>email</title>
            <path class="path1"
                  d="M747.93 623.206c0 43.008 12.237 60.16 44.237 60.16 71.322 0 116.736-90.88 116.736-242.022 0-231.014-168.346-341.606-378.522-341.606-216.218 0-412.877 144.998-412.877 419.021 0 261.734 172.032 404.275 436.224 404.275 89.702 0 149.914-9.83 242.022-40.55l19.763 82.278c-90.931 29.542-188.109 38.093-263.014 38.093-346.522 0-532.122-190.464-532.122-484.147 0-296.141 215.091-497.664 511.232-497.664 308.429 0 471.808 184.32 471.808 410.419 0 191.693-60.16 337.92-249.395 337.92-86.067 0-142.541-34.406-149.914-110.643-22.118 84.787-81.101 110.643-161.024 110.643-106.906 0-196.608-82.381-196.608-248.218 0-167.117 78.694-270.336 220.006-270.336 74.957 0 121.651 29.491 142.438 76.186l35.686-65.126h103.219v361.318h0.102zM596.838 461.005c0-67.533-50.432-95.846-92.211-95.846-45.466 0-95.795 36.813-95.795 144.998 0 86.016 38.093 133.939 95.795 133.939 40.55 0 92.211-25.805 92.211-97.075v-86.016z"/>
        </symbol>

        <symbol id="icon_wallet" viewBox="0 0 1024 1024">
            <title>wallet</title>
            <path class="path1"
                  d="M576 672c-35.328 0-64-28.672-64-64v-64c0-35.36 28.672-64 64-64h384v192h-384zM624 530.656c-26.496 0-48 21.504-48 48 0 26.528 21.504 48 48 48 26.528 0 48-21.472 48-48 0-26.496-21.472-48-48-48zM480 544v64c0 52.992 43.008 96 96 96h320v128c0 52.992-42.976 96-96 96h-672c-52.992 0-96-43.008-96-96v-608c0-53.024 43.008-96 96-96h308.224l-75.168 31.328h-249.024c-26.496 0-48 21.504-48 48 0 26.528 21.504 48 48 48h783.968v192.672h-320c-52.992 0-96 42.976-96 96zM160.032 320h-64v64h32v-32h32v-32zM160.032 416h-64v64h33.312l-1.312-32 32 0.672v-32.672zM160.032 512h-64v64h32.672l-0.672-32h32v-32zM160.032 608h-64v64h32.672l-0.672-32 32 0.672v-32.672zM160.032 704h-64v64h32v-32h32v-32zM160.032 800h-64v64h32.672l-0.672-31.328h32v-32.672zM288.032 222.016l376-158.016 72 158.016h-448zM724.672 128h75.328c28.032 0 52.992 12.192 70.56 31.328h-130.592l-15.296-31.328z"/>
        </symbol>

        <symbol id="icon_truck" viewBox="0 0 1024 1024">
            <title>truck</title>
            <path class="path1"
                  d="M1024 576l-128-256h-192v-128c0-35.2-28.8-64-64-64h-576c-35.2 0-64 28.8-64 64v512l64 64h81.166c-10.898 18.832-17.166 40.678-17.166 64 0 70.692 57.308 128 128 128s128-57.308 128-128c0-23.322-6.268-45.168-17.166-64h354.334c-10.898 18.832-17.168 40.678-17.168 64 0 70.692 57.308 128 128 128s128-57.308 128-128c0-23.322-6.27-45.168-17.168-64h81.168v-192zM704 576v-192h132.668l96 192h-228.668z"/>
        </symbol>

        <symbol id="icon_plus_circle" viewBox="0 0 914.2857142857143 1024">
            <title>plus_circle</title>
            <path class="path1"
                  d="M694.857 548.571v-73.143q0-14.857-10.857-25.714t-25.714-10.857h-146.286v-146.286q0-14.857-10.857-25.714t-25.714-10.857h-73.143q-14.857 0-25.714 10.857t-10.857 25.714v146.286h-146.286q-14.857 0-25.714 10.857t-10.857 25.714v73.143q0 14.857 10.857 25.714t25.714 10.857h146.286v146.286q0 14.857 10.857 25.714t25.714 10.857h73.143q14.857 0 25.714-10.857t10.857-25.714v-146.286h146.286q14.857 0 25.714-10.857t10.857-25.714zM877.714 512q0 119.429-58.857 220.286t-159.714 159.714-220.286 58.857-220.286-58.857-159.714-159.714-58.857-220.286 58.857-220.286 159.714-159.714 220.286-58.857 220.286 58.857 159.714 159.714 58.857 220.286z"/>
        </symbol>

        <symbol id="icon_minus_circle" viewBox="0 0 914.2857142857143 1024">
            <title>minus_circle</title>
            <path class="path1"
                  d="M694.857 548.571v-73.143q0-14.857-10.857-25.714t-25.714-10.857h-438.857q-14.857 0-25.714 10.857t-10.857 25.714v73.143q0 14.857 10.857 25.714t25.714 10.857h438.857q14.857 0 25.714-10.857t10.857-25.714zM877.714 512q0 119.429-58.857 220.286t-159.714 159.714-220.286 58.857-220.286-58.857-159.714-159.714-58.857-220.286 58.857-220.286 159.714-159.714 220.286-58.857 220.286 58.857 159.714 159.714 58.857 220.286z"/>
        </symbol>

        <symbol id="icon_trash" viewBox="0 0 805 1024">
            <title>trash</title>
            <path class="path1"
                  d="M292.571 786.286v-402.286q0-8-5.143-13.143t-13.143-5.143h-36.571q-8 0-13.143 5.143t-5.143 13.143v402.286q0 8 5.143 13.143t13.143 5.143h36.571q8 0 13.143-5.143t5.143-13.143zM438.857 786.286v-402.286q0-8-5.143-13.143t-13.143-5.143h-36.571q-8 0-13.143 5.143t-5.143 13.143v402.286q0 8 5.143 13.143t13.143 5.143h36.571q8 0 13.143-5.143t5.143-13.143zM585.143 786.286v-402.286q0-8-5.143-13.143t-13.143-5.143h-36.571q-8 0-13.143 5.143t-5.143 13.143v402.286q0 8 5.143 13.143t13.143 5.143h36.571q8 0 13.143-5.143t5.143-13.143zM274.286 219.429h256l-27.429-66.857q-4-5.143-9.714-6.286h-181.143q-5.714 1.143-9.714 6.286zM804.571 237.714v36.571q0 8-5.143 13.143t-13.143 5.143h-54.857v541.714q0 47.429-26.857 82t-64.571 34.571h-475.429q-37.714 0-64.571-33.429t-26.857-80.857v-544h-54.857q-8 0-13.143-5.143t-5.143-13.143v-36.571q0-8 5.143-13.143t13.143-5.143h176.571l40-95.429q8.571-21.143 30.857-36t45.143-14.857h182.857q22.857 0 45.143 14.857t30.857 36l40 95.429h176.571q8 0 13.143 5.143t5.143 13.143z"/>
        </symbol>

        <symbol id="icon_user" viewBox="0 0 805 1024">
            <title>user</title>
            <path class="path1"
                  d="M804.571 802.857q0 68.571-41.714 108.286t-110.857 39.714h-499.429q-69.143 0-110.857-39.714t-41.714-108.286q0-30.286 2-59.143t8-62.286 15.143-62 24.571-55.714 35.429-46.286 48.857-30.571 63.714-11.429q5.143 0 24 12.286t42.571 27.429 61.714 27.429 76.286 12.286 76.286-12.286 61.714-27.429 42.571-27.429 24-12.286q34.857 0 63.714 11.429t48.857 30.571 35.429 46.286 24.571 55.714 15.143 62 8 62.286 2 59.143zM621.714 292.571q0 90.857-64.286 155.143t-155.143 64.286-155.143-64.286-64.286-155.143 64.286-155.143 155.143-64.286 155.143 64.286 64.286 155.143z"/>
        </symbol>

        <symbol id="icon_buy_now" viewBox="0 0 1024 1024">
            <title>buy_now</title>
            <path class="path1"
                  d="M778.058 394.972q0-15.847-11.581-27.428t-27.428-11.581-27.428 11.581l-89.6 88.991v-178.591q0-15.847-11.581-27.428t-27.428-11.581-27.428 11.581-11.581 27.428v178.591l-89.6-88.991q-11.581-11.581-27.428-11.581t-27.428 11.581-11.581 27.428 11.581 27.428l156.038 156.038q11.581 11.581 27.428 11.581t27.428-11.581l156.038-156.038q11.581-11.581 11.581-27.428zM387.962 902.095q0 32.305-22.858 55.162t-55.162 22.858-55.162-22.858-22.858-55.162 22.858-55.162 55.162-22.858 55.162 22.858 22.858 55.162zM934.095 902.095q0 32.305-22.858 55.162t-55.162 22.858-55.162-22.858-22.858-55.162 22.858-55.162 55.162-22.858 55.162 22.858 22.858 55.162zM1012.114 238.933v312.076q0 14.628-9.753 25.905t-24.991 13.105l-636.342 74.362q0.609 4.267 2.742 13.105t3.658 16.153 1.524 13.409q0 9.753-14.628 39.009h560.762q15.847 0 27.428 11.581t11.581 27.428-11.581 27.428-27.428 11.581h-624.153q-15.847 0-27.428-11.581t-11.581-27.428q0-8.533 6.705-24.076t17.981-36.267 12.495-23.162l-107.886-501.638h-124.342q-15.847 0-27.428-11.581t-11.581-27.428 11.581-27.428 27.428-11.581h156.038q9.753 0 17.372 3.962t12.191 9.447 7.924 14.933 4.572 16.153 3.353 17.981 2.742 15.542h732.038q15.847 0 27.428 11.581t11.581 27.428z"/>
        </symbol>

        <symbol id="icon_home" viewBox="0 0 951 1024">
            <title>home</title>
            <path class="path1"
                  d="M804.571 566.857v274.286q0 14.857-10.857 25.714t-25.714 10.857h-219.429v-219.429h-146.286v219.429h-219.429q-14.857 0-25.714-10.857t-10.857-25.714v-274.286q0-0.571 0.286-1.714t0.286-1.714l328.571-270.857 328.571 270.857q0.571 1.143 0.571 3.429zM932 527.429l-35.429 42.286q-4.571 5.143-12 6.286h-1.714q-7.429 0-12-4l-395.429-329.714-395.429 329.714q-6.857 4.571-13.714 4-7.429-1.143-12-6.286l-35.429-42.286q-4.571-5.714-4-13.429t6.286-12.286l410.857-342.286q18.286-14.857 43.429-14.857t43.429 14.857l139.429 116.571v-111.429q0-8 5.143-13.143t13.143-5.143h109.714q8 0 13.143 5.143t5.143 13.143v233.143l125.143 104q5.714 4.571 6.286 12.286t-4 13.429z"/>
        </symbol>

        <symbol id="icon_angle_right" viewBox="0 0 366 1024">
            <title>angle-right</title>
            <path class="path1"
                  d="M340 548.571q0 7.429-5.714 13.143l-266.286 266.286q-5.714 5.714-13.143 5.714t-13.143-5.714l-28.571-28.571q-5.714-5.714-5.714-13.143t5.714-13.143l224.571-224.571-224.571-224.571q-5.714-5.714-5.714-13.143t5.714-13.143l28.571-28.571q5.714-5.714 13.143-5.714t13.143 5.714l266.286 266.286q5.714 5.714 5.714 13.143z"/>
        </symbol>

        <symbol id="icon_angle_left" viewBox="0 0 366 1024">
            <title>angle_left</title>
            <path class="path1"
                  d="M358.286 310.857q0 7.429-5.714 13.143l-224.571 224.571 224.571 224.571q5.714 5.714 5.714 13.143t-5.714 13.143l-28.571 28.571q-5.714 5.714-13.143 5.714t-13.143-5.714l-266.286-266.286q-5.714-5.714-5.714-13.143t5.714-13.143l266.286-266.286q5.714-5.714 13.143-5.714t13.143 5.714l28.571 28.571q5.714 5.714 5.714 13.143z"/>
        </symbol>

        <symbol id="icon_cart" viewBox="0 0 1015 1024">
            <title>cart</title>
            <path class="path1"
                  d="M388.262 902.095q0 31.695-23.162 54.858t-54.858 23.162-54.858-23.162-23.162-54.858 23.162-54.858 54.858-23.162 54.858 23.162 23.162 54.858zM934.395 902.095q0 31.695-23.162 54.858t-54.858 23.162-54.858-23.162-23.162-54.858 23.162-54.858 54.858-23.162 54.858 23.162 23.162 54.858zM1012.414 238.933v312.076q0 14.628-10.058 25.905t-24.686 13.105l-636.342 74.362q7.924 36.572 7.924 42.667 0 9.753-14.628 39.009h560.762q15.847 0 27.428 11.581t11.581 27.428-11.581 27.428-27.428 11.581h-624.153q-15.847 0-27.428-11.581t-11.581-27.428q0-6.705 4.876-19.2t9.753-21.942 13.105-24.381 9.447-17.981l-107.886-501.638h-124.342q-15.847 0-27.428-11.581t-11.581-27.428 11.581-27.428 27.428-11.581h156.038q9.753 0 17.372 3.962t11.886 9.447 7.924 14.933 4.876 15.847 3.353 17.981 2.742 15.847h732.038q15.847 0 27.428 11.581t11.581 27.428z"/>
        </symbol>

        <symbol id="icon_angle_down" viewBox="0 0 658 1024">
            <title>angle_down</title>
            <path class="path1"
                  d="M633.305 414.476q0 7.924-6.095 14.019l-284.038 284.038q-6.095 6.095-14.019 6.095t-14.019-6.095l-284.038-284.038q-6.095-6.095-6.095-14.019t6.095-14.019l30.476-30.476q6.095-6.095 14.019-6.095t14.019 6.095l239.542 239.542 239.542-239.542q6.095-6.095 14.019-6.095t14.019 6.095l30.476 30.476q6.095 6.095 6.095 14.019z"/>
        </symbol>

        <symbol id="icon_question" viewBox="0 0 1024 1024">
            <title>question</title>
            <path class="path1"
                  d="M735.369 87.819c-62.259-44.892-140.465-67.339-234.619-67.339-71.598 0-132.055 15.783-181.152 47.405-77.933 49.479-119.33 133.53-124.354 252.041h180.606c0-34.571 10.103-67.721 30.202-99.834 20.153-32.003 54.34-48.005 102.564-48.005 49.043 0 82.848 12.998 101.253 38.94 18.514 26.050 27.744 54.832 27.744 86.398 0 27.525-13.762 52.702-30.419 75.531-9.12 13.326-21.135 25.614-36.099 36.81 0 0-97.922 62.805-140.902 113.268-24.903 29.218-27.142 73.073-29.382 135.878-0.109 4.478 1.584 13.762 17.203 13.762 15.674 0 126.484 0 140.411 0 13.981 0 16.876-10.322 17.039-14.964 0.983-22.829 3.495-34.571 7.7-47.787 7.865-24.958 29.382-46.694 53.467-65.482l49.698-34.242c44.892-35.007 80.663-63.679 96.501-86.18 26.979-36.918 45.984-82.466 45.984-136.533-0.054-88.201-31.184-154.665-93.443-199.666zM497.855 780.916c-62.205-1.911-113.541 41.179-115.507 108.681-1.911 67.393 46.859 112.012 109.118 113.814 64.935 1.911 114.907-39.703 116.927-107.206 1.857-67.502-45.548-113.377-110.538-115.289z"/>
        </symbol>

        <symbol id="icon_vk" viewBox="0 0 1097 1024">
            <title>vk</title>
            <path class="path1"
                  d="M1095.429 260.572q13.143 36.571-85.714 168-13.714 18.286-37.143 48.571-44.571 57.143-51.429 74.857-9.714 23.429 8 46.286 9.714 12 46.286 46.857h0.571l2.286 2.286q80.571 74.857 109.143 126.286 1.714 2.857 3.714 7.143t4 15.143-0.286 19.429-14.286 15.714-33.714 7.143l-146.286 2.286q-13.714 2.857-32-2.857t-29.714-12.571l-11.429-6.857q-17.143-12-40-36.571t-39.143-44.286-34.857-33.143-32.286-8.857q-1.714 0.571-4.571 2t-9.714 8.286-12.286 16.857-9.714 29.714-3.714 44.286q0 8.571-2 15.714t-4.286 10.571l-2.286 2.857q-10.286 10.857-30.286 12.571h-65.714q-40.571 2.286-83.429-9.429t-75.143-30.286-58.857-37.714-40.286-32.857l-14.286-13.714q-5.714-5.714-15.714-17.143t-40.857-52-60.571-86.286-70-120.571-74.571-155.429q-3.429-9.143-3.429-15.429t1.714-9.143l2.286-3.429q8.571-10.857 32.571-10.857l156.571-1.143q6.857 1.143 13.143 3.714t9.143 4.857l2.857 1.714q9.143 6.286 13.714 18.286 11.429 28.571 26.286 59.143t23.429 46.571l9.143 16.571q16.571 34.286 32 59.429t27.714 39.143 23.714 22 19.429 8 15.429-2.857q1.143-0.571 2.857-2.857t6.857-12.571 7.714-26.857 5.429-46.286 0-71.429q-1.143-22.857-5.143-41.714t-8-26.286l-3.429-6.857q-14.286-19.429-48.571-24.571-7.429-1.143 2.857-13.714 9.714-10.857 21.714-17.143 30.286-14.857 136.571-13.714 46.857 0.571 77.143 7.429 11.429 2.857 19.143 7.714t11.714 13.714 6 18.286 2 26-0.571 31.429-1.429 40.286-0.857 47.143q0 6.286-0.571 24t-0.286 27.429 2 23.143 6.571 22.286 12.857 14q4.571 1.143 9.714 2.286t14.857-6.286 21.714-19.714 29.714-38.286 38.857-61.429q34.286-59.429 61.143-128.571 2.286-5.714 5.714-10t6.286-6l2.286-1.714 2.857-1.429t7.429-1.714 11.429-0.286l164.571-1.143q22.286-2.857 36.571 1.429t17.714 9.429z"/>
        </symbol>

        <symbol id="icon_sale" viewBox="0 0 1024 1024">
            <title>sale</title>
            <path class="path1"
                  d="M896 992h-768c-53.024 0-96-43.008-96-96v-448c0-53.024 42.976-96 96-96h64l271.776-208.576c-1.216-4.96-2.048-10.080-2.048-15.424 0-35.328 28.672-64 64-64s63.968 28.672 63.968 64c0 11.488-3.264 22.144-8.608 31.488l250.912 192.512h64c52.992 0 96 42.976 96 96v448c0 52.992-43.008 96-96 96zM546.272 786.656h128.992v-24.256h-101.76v-182.016h-27.264v206.272zM361.696 786.656l22.592-62.496h86.656l23.744 62.496h31.104l-84.096-206.24h-29.568l-79.296 206.24h28.864zM170.944 604.608c-5.888 9.088-8.832 18.848-8.832 29.248 0 9.504 2.4 18.048 7.232 25.728s12.16 14.048 21.984 19.264c7.552 4.032 20.768 8.32 39.648 12.864s31.072 7.904 36.608 10.048c8.608 3.328 14.784 7.328 18.592 12.16s5.728 10.432 5.728 16.896c0 6.336-1.952 12.256-5.824 17.664s-9.792 9.664-17.76 12.768c-7.936 3.136-17.088 4.672-27.456 4.672-11.68 0-22.176-2.016-31.52-6.144-9.376-4.064-16.256-9.44-20.672-16.096s-7.296-15.168-8.512-25.504l-25.76 2.24c0.384 13.792 4.16 26.112 11.328 37.024 7.168 10.944 17.024 19.136 29.6 24.576 12.608 5.44 28.192 8.16 46.816 8.16 14.656 0 27.872-2.688 39.616-8.096 11.744-5.376 20.736-12.864 27.008-22.592 6.272-9.696 9.408-20 9.408-30.976 0-11.040-2.88-20.768-8.608-29.248-5.728-8.512-14.592-15.488-26.624-20.992-8.288-3.744-23.456-8.128-45.536-13.12-22.112-5.024-35.776-9.952-40.992-14.752-5.344-4.736-8-10.848-8-18.24 0-8.576 3.776-15.84 11.296-21.888s19.488-9.088 35.936-9.088c15.808 0 27.744 3.328 35.808 9.92 8.096 6.624 12.8 16.416 14.208 29.344l26.24-1.984c-0.48-12.096-3.84-22.912-10.080-32.448-6.272-9.536-15.232-16.768-26.88-21.696s-25.088-7.36-40.352-7.36c-13.856 0-26.432 2.336-37.76 7.040-11.392 4.672-20 11.52-25.888 20.608zM565.696 177.6c-11.008 8.864-24.768 14.4-39.968 14.4-21.184 0-39.808-10.4-51.456-26.272l-250.272 186.272h576l-234.304-174.4zM861.952 762.4h-126.496v-70.24h113.984v-24.256h-113.984v-63.264h121.76v-24.256h-148.992v206.24h153.76v-24.224zM426.048 601.92c3.328 11.296 8.192 25.6 14.624 42.976l21.728 57.024h-70.368l22.88-60.384c4.704-13.024 8.416-26.24 11.136-39.616z"/>
        </symbol>

        <symbol id="icon_medal" viewBox="0 0 1024 1024">
            <title>medal</title>
            <path class="path1"
                  d="M294.176 641.184c-40 0-45.312-18.688-45.312-18.688l-156 306.56 125.088-14.016 69.184 104c0 0 144-300.576 144-298.56-74.56-1.792-44.96-77.28-136.96-79.296zM645.824 674.080c19.424-32.64 48.128-49.184 86.112-49.696 37.952-0.512 57.184-19.744 57.696-57.728 0.512-37.952 17.056-66.656 49.696-86.048s39.68-45.696 21.12-78.816-18.56-66.272 0-99.392 11.488-59.392-21.12-78.816-49.184-48.096-49.696-86.080c-0.512-37.952-19.744-57.184-57.696-57.696-38.016-0.512-66.688-17.056-86.112-49.696-19.36-32.64-45.696-39.68-78.816-21.12s-66.24 18.56-99.36 0-59.392-11.488-78.816 21.12c-19.424 32.64-48.096 49.184-86.080 49.696-37.952 0.544-57.184 19.776-57.696 57.728-0.512 37.984-17.056 66.656-49.696 86.080s-39.68 45.696-21.12 78.816c18.56 33.12 18.56 66.272 0 99.392s-11.488 59.392 21.12 78.816c32.64 19.424 49.184 48.128 49.696 86.048 0.512 37.984 19.744 57.216 57.696 57.728 37.984 0.512 66.656 17.056 86.080 49.696 19.392 32.64 45.696 39.648 78.816 21.12s66.24-18.528 99.36 0 59.424 11.488 78.816-21.152zM560.576 512.128h-56.992v-215.232c-20.832 19.488-45.44 33.888-73.76 43.232v-51.744c14.88-4.864 31.072-14.080 48.544-27.68s29.44-29.44 35.936-47.552h46.272v298.976zM773.12 634.496c-113.984 12-90.816 40.192-116.8 62.176-30.016 32-67.424 25.824-67.424 25.824l176 302.56 43.2-112 123.072 16-158.048-294.56z"/>
        </symbol>

        <symbol id="icon_new" viewBox="0 0 1024 1024">
            <title>new</title>
            <path class="path1"
                  d="M956.928 632.013l-88.422-78.746c-25.6-22.784-25.6-60.109 0-82.893l88.422-78.797c25.6-22.784 18.79-43.981-15.155-47.309l-117.248-11.11c-33.894-3.174-52.224-32.41-40.499-64.819l62.208-173.21c11.674-32.512-2.611-44.288-31.693-26.317l-138.291 85.504c-29.082 18.125-66.714 8.192-83.507-21.811l-50.074-89.395c-16.845-30.106-44.646-30.208-61.798-0.41l-46.541 80.896c-17.254 29.952-56.73 42.65-87.706 28.467l-81.92-37.581c-31.13-14.336-54.938 2.15-53.094 36.659l4.403 82.688c1.894 34.509-23.603 69.99-56.525 78.899l-79.104 21.197c-32.87 8.909-38.912 34.816-13.312 57.6l88.422 78.797c25.6 22.784 25.6 60.109 0 82.893l-88.422 78.797c-25.6 22.784-18.842 44.902 15.002 48.998l107.264 13.005c33.843 4.096 52.685 34.304 41.882 67.123l-54.989 166.81c-10.803 32.819 4.608 45.517 34.202 28.416l126.106-73.011c29.594-17.101 69.427-7.68 88.525 20.89l52.326 78.797c19.046 28.621 47.667 27.085 63.488-3.482l46.029-88.73c15.872-30.618 53.862-43.11 84.378-27.802l88.781 44.39c30.618 15.206 54.118-0.512 52.275-34.918l-4.454-82.79c-1.792-34.509 23.603-69.888 56.627-78.797l79.002-21.299c32.973-8.909 39.014-34.816 13.414-57.6zM563.2 716.8h-102.4v-102.4h102.4v102.4zM563.2 563.2h-102.4v-256h102.4v256z"/>
        </symbol>

        <symbol id="icon_heart" viewBox="0 0 1024 1024">
            <title>heart</title>
            <path class="path1"
                  d="M512 897.714q-13.058 0-22.099-9.040l-313.392-302.344q-5.022-4.017-13.811-13.058t-27.874-32.897-34.151-48.967-26.869-60.771-11.803-69.308q0-110.491 63.783-172.767t176.283-62.276q31.139 0 63.532 10.798t60.267 29.13 47.962 34.403 38.17 34.151q18.080-18.080 38.17-34.151t47.962-34.403 60.267-29.13 63.533-10.798q112.5 0 176.283 62.276t63.783 172.767q0 110.993-115.011 226.005l-312.891 301.339q-9.040 9.040-22.099 9.040z"/>
        </symbol>

        <symbol id="icon_trophy" viewBox="0 0 951 1024">
            <title>trophy</title>
            <path class="path1"
                  d="M261.714 504.571q-42.286-92.571-42.286-212h-146.286v54.857q0 44.571 54 92.571t134.571 64.571zM877.714 347.429v-54.857h-146.286q0 119.429-42.286 212 80.571-16.571 134.571-64.571t54-92.571zM950.857 274.286v73.143q0 40.571-23.714 81.714t-64 74.286-98.857 55.714-123.143 25.429q-24 30.857-54.286 54.286-21.714 19.429-30 41.429t-8.286 51.143q0 30.857 17.429 52t55.714 21.143q42.857 0 76.286 26t33.429 65.429v36.571q0 8-5.143 13.143t-13.143 5.143h-475.429q-8 0-13.143-5.143t-5.143-13.143v-36.571q0-39.429 33.429-65.429t76.286-26q38.286 0 55.714-21.143t17.429-52q0-29.143-8.286-51.143t-30-41.429q-30.286-23.429-54.286-54.286-64.571-2.857-123.143-25.429t-98.857-55.714-64-74.286-23.714-81.714v-73.143q0-22.857 16-38.857t38.857-16h164.571v-54.857q0-37.714 26.857-64.571t64.571-26.857h329.143q37.714 0 64.571 26.857t26.857 64.571v54.857h164.571q22.857 0 38.857 16t16 38.857z"/>
        </symbol>

        <symbol id="icon_cart" viewBox="0 0 1015 1024">
            <title>cart</title>
            <path class="path1"
                  d="M388.262 902.095q0 31.695-23.162 54.858t-54.858 23.162-54.858-23.162-23.162-54.858 23.162-54.858 54.858-23.162 54.858 23.162 23.162 54.858zM934.395 902.095q0 31.695-23.162 54.858t-54.858 23.162-54.858-23.162-23.162-54.858 23.162-54.858 54.858-23.162 54.858 23.162 23.162 54.858zM1012.414 238.933v312.076q0 14.628-10.058 25.905t-24.686 13.105l-636.342 74.362q7.924 36.572 7.924 42.667 0 9.753-14.628 39.009h560.762q15.847 0 27.428 11.581t11.581 27.428-11.581 27.428-27.428 11.581h-624.153q-15.847 0-27.428-11.581t-11.581-27.428q0-6.705 4.876-19.2t9.753-21.942 13.105-24.381 9.447-17.981l-107.886-501.638h-124.342q-15.847 0-27.428-11.581t-11.581-27.428 11.581-27.428 27.428-11.581h156.038q9.753 0 17.372 3.962t11.886 9.447 7.924 14.933 4.876 15.847 3.353 17.981 2.742 15.847h732.038q15.847 0 27.428 11.581t11.581 27.428z"/>
        </symbol>

        <symbol id="icon_menu" viewBox="0 0 1024 1024">
            <title>menu</title>
            <path class="path1"
                  d="M2.275 111.502h1019.449v218.453h-1019.449zM2.275 402.773h1019.449v218.453h-1019.449zM2.275 694.045h1019.449v218.453h-1019.449z"/>
        </symbol>

        <symbol id="icon_close" viewBox="0 0 1024 1024">
            <title>close</title>
            <path class="path1"
                  d="M953.793 785.041c-0.004-0.004-0.007-0.007-0.010-0.008l-273.027-273.032 273.027-273.032c0.004-0.004 0.008-0.006 0.010-0.008 2.939-2.941 5.064-6.376 6.427-10.033 3.732-9.998 1.603-21.693-6.437-29.734l-128.976-128.976c-8.040-8.038-19.732-10.165-29.732-6.434-3.656 1.362-7.093 3.488-10.035 6.425 0 0.004-0.004 0.006-0.008 0.008l-273.031 273.034-273.031-273.032c-0.004-0.004-0.006-0.006-0.008-0.008-2.941-2.937-6.376-5.063-10.032-6.425-10.002-3.734-21.693-1.605-29.734 6.433l-128.978 128.977c-8.040 8.040-10.167 19.733-6.435 29.732 1.364 3.656 3.489 7.095 6.427 10.033 0.004 0.002 0.006 0.006 0.008 0.008l273.032 273.031-273.032 273.034c-0.002 0.004-0.006 0.006-0.007 0.008-2.937 2.941-5.063 6.376-6.428 10.032-3.734 9.998-1.605 21.693 6.435 29.734l128.977 128.976c8.042 8.040 19.733 10.167 29.734 6.435 3.656-1.364 7.093-3.489 10.033-6.427 0.002-0.004 0.006-0.006 0.008-0.008l273.031-273.032 273.031 273.032c0.004 0.002 0.008 0.006 0.010 0.008 2.943 2.939 6.376 5.064 10.032 6.428 10 3.732 21.695 1.605 29.732-6.435l128.976-128.977c8.040-8.040 10.169-19.735 6.437-29.734-1.364-3.656-3.489-7.091-6.428-10.032z"/>
        </symbol>

        <symbol id="icon_google" viewBox="0 0 1024 1024">
            <title>google</title>
            <path class="path1"
                  d="M559.066 96c0 0-200.956 0-267.94 0-120.12 0-233.17 91.006-233.17 196.422 0 107.726 81.882 194.666 204.088 194.666 8.498 0 16.756-0.17 24.842-0.752-7.93 15.186-13.602 32.288-13.602 50.042 0 29.938 16.104 54.21 36.468 74.024-15.386 0-30.242 0.448-46.452 0.448-148.782-0.002-263.3 94.758-263.3 193.020 0 96.778 125.542 157.314 274.334 157.314 169.624 0 263.306-96.244 263.306-193.028 0-77.6-22.896-124.072-93.686-174.134-24.216-17.144-70.53-58.836-70.53-83.344 0-28.72 8.196-42.868 51.428-76.646 44.312-34.624 75.672-83.302 75.672-139.916 0-67.406-30.020-133.098-86.372-154.772h84.954l59.96-43.344zM465.48 751.458c2.126 8.972 3.284 18.206 3.284 27.628 0 78.2-50.392 139.31-194.974 139.31-102.842 0-177.116-65.104-177.116-143.3 0-76.642 92.126-140.444 194.964-139.332 24 0.254 46.368 4.116 66.67 10.69 55.826 38.826 95.876 60.762 107.172 105.004zM300.818 459.776c-69.038-2.064-134.636-77.226-146.552-167.86-11.916-90.666 34.37-160.042 103.388-157.99 69.010 2.074 134.638 74.814 146.558 165.458 11.906 90.66-34.39 162.458-103.394 160.392zM832 288v-192h-64v192h-192v64h192v192h64v-192h192v-64z"/>
        </symbol>

        <symbol id="icon_facebook" viewBox="0 0 512 1024">
            <title>facebook</title>
            <path class="path1"
                  d="M328.818 38.685c-100.541 0-182.045 81.504-182.045 182.045v109.227h-145.635v145.635h145.635v509.725h145.635v-509.725h163.84l36.409-145.635h-200.249v-109.227c0-20.107 16.3-36.409 36.409-36.409h182.045v-145.635h-182.045z"/>
        </symbol>
    </defs>
</svg>